<mxfile host="app.diagrams.net" agent="Mozilla/5.0 (Windows NT 10.0; Win64; x64) AppleWebKit/537.36 (KHTML, like Gecko) Chrome/138.0.0.0 Safari/537.36" version="28.0.7">
  <diagram name="Page-1" id="vNXdkOcBj9Wq41IBkxlO">
    <mxGraphModel dx="496" dy="1440" grid="1" gridSize="10" guides="1" tooltips="1" connect="1" arrows="1" fold="1" page="1" pageScale="1" pageWidth="827" pageHeight="1169" math="0" shadow="0">
      <root>
        <mxCell id="0" />
        <mxCell id="1" parent="0" />
        <mxCell id="6fYzGvUYfayJuw-_JPxw-3" value="&lt;span style=&quot;font-size: 24px;&quot;&gt;VCC/5V&lt;/span&gt;" style="pointerEvents=1;verticalLabelPosition=bottom;shadow=0;dashed=0;align=center;html=1;verticalAlign=top;shape=mxgraph.electrical.signal_sources.source;aspect=fixed;points=[[0.5,0,0],[1,0.5,0],[0.5,1,0],[0,0.5,0]];elSignalType=dc3;" parent="1" vertex="1">
          <mxGeometry x="260" y="-150" width="290" height="290" as="geometry" />
        </mxCell>
        <mxCell id="6fYzGvUYfayJuw-_JPxw-4" value="GND" style="pointerEvents=1;verticalLabelPosition=bottom;shadow=0;dashed=0;align=center;html=1;verticalAlign=top;shape=mxgraph.electrical.signal_sources.signal_ground;fontSize=21;" parent="1" vertex="1">
          <mxGeometry x="304" y="860" width="220" height="230" as="geometry" />
        </mxCell>
        <mxCell id="6fYzGvUYfayJuw-_JPxw-9" value="&lt;span style=&quot;color: rgb(0, 29, 53); font-family: Arial, sans-serif; text-align: start; text-wrap-mode: wrap; background-color: rgb(255, 255, 255);&quot;&gt;&lt;font style=&quot;font-size: 25px;&quot;&gt;10kΩ&lt;/font&gt;&lt;/span&gt;" style="pointerEvents=1;verticalLabelPosition=bottom;shadow=0;dashed=0;align=center;html=1;verticalAlign=top;shape=mxgraph.electrical.resistors.resistor_2;rotation=90;fontSize=33;" parent="1" vertex="1">
          <mxGeometry x="530" y="350" width="211" height="60" as="geometry" />
        </mxCell>
        <mxCell id="6fYzGvUYfayJuw-_JPxw-22" style="edgeStyle=orthogonalEdgeStyle;rounded=0;orthogonalLoop=1;jettySize=auto;html=1;exitX=1;exitY=0.5;exitDx=0;exitDy=0;exitPerimeter=0;" parent="1" source="6fYzGvUYfayJuw-_JPxw-12" edge="1">
          <mxGeometry relative="1" as="geometry">
            <mxPoint x="635.1764705882354" y="730" as="targetPoint" />
          </mxGeometry>
        </mxCell>
        <mxCell id="6fYzGvUYfayJuw-_JPxw-12" value="&lt;span style=&quot;color: rgb(0, 29, 53); font-family: Arial, sans-serif; text-align: start; text-wrap-mode: wrap; background-color: rgb(255, 255, 255);&quot;&gt;&lt;font style=&quot;font-size: 25px;&quot;&gt;10kΩ&lt;/font&gt;&lt;/span&gt;" style="pointerEvents=1;verticalLabelPosition=bottom;shadow=0;dashed=0;align=center;html=1;verticalAlign=top;shape=mxgraph.electrical.resistors.resistor_2;rotation=90;" parent="1" vertex="1">
          <mxGeometry x="530" y="585" width="211" height="60" as="geometry" />
        </mxCell>
        <mxCell id="6fYzGvUYfayJuw-_JPxw-20" style="edgeStyle=orthogonalEdgeStyle;rounded=0;orthogonalLoop=1;jettySize=auto;html=1;exitX=1;exitY=0.5;exitDx=0;exitDy=0;exitPerimeter=0;entryX=0;entryY=0.5;entryDx=0;entryDy=0;entryPerimeter=0;" parent="1" source="6fYzGvUYfayJuw-_JPxw-3" target="6fYzGvUYfayJuw-_JPxw-9" edge="1">
          <mxGeometry relative="1" as="geometry" />
        </mxCell>
        <mxCell id="6fYzGvUYfayJuw-_JPxw-21" style="edgeStyle=orthogonalEdgeStyle;rounded=0;orthogonalLoop=1;jettySize=auto;html=1;exitX=1;exitY=0.5;exitDx=0;exitDy=0;exitPerimeter=0;entryX=0;entryY=0.5;entryDx=0;entryDy=0;entryPerimeter=0;" parent="1" source="6fYzGvUYfayJuw-_JPxw-9" target="6fYzGvUYfayJuw-_JPxw-12" edge="1">
          <mxGeometry relative="1" as="geometry" />
        </mxCell>
        <mxCell id="6fYzGvUYfayJuw-_JPxw-23" style="edgeStyle=orthogonalEdgeStyle;rounded=0;orthogonalLoop=1;jettySize=auto;html=1;exitX=1;exitY=0.5;exitDx=0;exitDy=0;exitPerimeter=0;entryX=0.5;entryY=0;entryDx=0;entryDy=0;entryPerimeter=0;" parent="1" source="6fYzGvUYfayJuw-_JPxw-12" target="6fYzGvUYfayJuw-_JPxw-4" edge="1">
          <mxGeometry relative="1" as="geometry">
            <Array as="points">
              <mxPoint x="636" y="850" />
              <mxPoint x="414" y="850" />
            </Array>
          </mxGeometry>
        </mxCell>
        <mxCell id="6fYzGvUYfayJuw-_JPxw-24" value="&lt;font style=&quot;font-size: 24px;&quot;&gt;10&lt;span style=&quot;color: rgb(0, 29, 53); font-family: Arial, sans-serif; text-align: start; text-wrap-mode: wrap; background-color: rgb(255, 255, 255);&quot;&gt;µF&lt;/span&gt;&lt;/font&gt;" style="pointerEvents=1;verticalLabelPosition=bottom;shadow=0;dashed=0;align=center;html=1;verticalAlign=top;shape=mxgraph.electrical.capacitors.capacitor_3;rotation=90;" parent="1" vertex="1">
          <mxGeometry x="780" y="360" width="220" height="170" as="geometry" />
        </mxCell>
        <mxCell id="6fYzGvUYfayJuw-_JPxw-26" style="edgeStyle=orthogonalEdgeStyle;rounded=0;orthogonalLoop=1;jettySize=auto;html=1;exitX=0;exitY=0.5;exitDx=0;exitDy=0;exitPerimeter=0;entryX=0;entryY=0.5;entryDx=0;entryDy=0;entryPerimeter=0;" parent="1" source="6fYzGvUYfayJuw-_JPxw-24" target="6fYzGvUYfayJuw-_JPxw-12" edge="1">
          <mxGeometry relative="1" as="geometry">
            <Array as="points">
              <mxPoint x="890" y="330" />
              <mxPoint x="770" y="330" />
              <mxPoint x="770" y="500" />
              <mxPoint x="636" y="500" />
            </Array>
          </mxGeometry>
        </mxCell>
        <mxCell id="6fYzGvUYfayJuw-_JPxw-31" style="edgeStyle=orthogonalEdgeStyle;rounded=0;orthogonalLoop=1;jettySize=auto;html=1;exitX=1;exitY=0.75;exitDx=0;exitDy=0;entryX=0.5;entryY=0;entryDx=0;entryDy=0;entryPerimeter=0;" parent="1" source="6fYzGvUYfayJuw-_JPxw-29" target="6fYzGvUYfayJuw-_JPxw-4" edge="1">
          <mxGeometry relative="1" as="geometry">
            <mxPoint x="1330" y="504.3333333333335" as="targetPoint" />
            <Array as="points">
              <mxPoint x="1480" y="620" />
              <mxPoint x="1480" y="850" />
              <mxPoint x="414" y="850" />
            </Array>
          </mxGeometry>
        </mxCell>
        <mxCell id="zMU_z4SldvgFsCKIW3oL-27" style="edgeStyle=orthogonalEdgeStyle;rounded=0;orthogonalLoop=1;jettySize=auto;html=1;exitX=0.75;exitY=0;exitDx=0;exitDy=0;entryX=1;entryY=1;entryDx=0;entryDy=0;entryPerimeter=0;" parent="1" source="6fYzGvUYfayJuw-_JPxw-29" target="zMU_z4SldvgFsCKIW3oL-28" edge="1">
          <mxGeometry relative="1" as="geometry">
            <mxPoint x="960" y="640" as="targetPoint" />
            <Array as="points">
              <mxPoint x="1395" y="525" />
              <mxPoint x="1050" y="525" />
              <mxPoint x="1050" y="633" />
            </Array>
          </mxGeometry>
        </mxCell>
        <mxCell id="6fYzGvUYfayJuw-_JPxw-29" value="SCT-013" style="rounded=0;whiteSpace=wrap;html=1;fontSize=25;" parent="1" vertex="1">
          <mxGeometry x="1230" y="545" width="220" height="100" as="geometry" />
        </mxCell>
        <mxCell id="6fYzGvUYfayJuw-_JPxw-59" value="&lt;font style=&quot;font-size: 25px;&quot;&gt;Raspberry Pi Zero W&lt;/font&gt;" style="rounded=0;whiteSpace=wrap;html=1;" parent="1" vertex="1">
          <mxGeometry x="1654" y="330" width="310" height="145" as="geometry" />
        </mxCell>
        <mxCell id="6fYzGvUYfayJuw-_JPxw-60" value="&lt;font style=&quot;font-size: 17px;&quot;&gt;&amp;nbsp;(9)GND&lt;/font&gt;" style="text;html=1;align=center;verticalAlign=middle;whiteSpace=wrap;rounded=0;" parent="1" vertex="1">
          <mxGeometry x="1594" y="460" width="60" height="15" as="geometry" />
        </mxCell>
        <mxCell id="6fYzGvUYfayJuw-_JPxw-62" value="&lt;span style=&quot;font-size: 17px;&quot;&gt;(1)3.3V/VCC&lt;/span&gt;" style="text;html=1;align=center;verticalAlign=middle;whiteSpace=wrap;rounded=0;" parent="1" vertex="1">
          <mxGeometry x="1560" y="340" width="80" height="20" as="geometry" />
        </mxCell>
        <mxCell id="6fYzGvUYfayJuw-_JPxw-65" style="edgeStyle=orthogonalEdgeStyle;rounded=0;orthogonalLoop=1;jettySize=auto;html=1;exitX=0;exitY=0.5;exitDx=0;exitDy=0;entryX=0.5;entryY=0;entryDx=0;entryDy=0;entryPerimeter=0;" parent="1" source="6fYzGvUYfayJuw-_JPxw-60" target="6fYzGvUYfayJuw-_JPxw-4" edge="1">
          <mxGeometry relative="1" as="geometry">
            <Array as="points">
              <mxPoint x="1560" y="850" />
              <mxPoint x="414" y="850" />
            </Array>
          </mxGeometry>
        </mxCell>
        <mxCell id="zMU_z4SldvgFsCKIW3oL-11" value="&lt;font style=&quot;font-size: 26px;&quot;&gt;ADS1115&lt;/font&gt;" style="whiteSpace=wrap;html=1;aspect=fixed;" parent="1" vertex="1">
          <mxGeometry x="1200" y="220" width="130" height="130" as="geometry" />
        </mxCell>
        <mxCell id="zMU_z4SldvgFsCKIW3oL-68" style="edgeStyle=orthogonalEdgeStyle;rounded=0;orthogonalLoop=1;jettySize=auto;html=1;exitX=0;exitY=0.75;exitDx=0;exitDy=0;entryX=0;entryY=0.5;entryDx=0;entryDy=0;" parent="1" source="zMU_z4SldvgFsCKIW3oL-12" target="6fYzGvUYfayJuw-_JPxw-62" edge="1">
          <mxGeometry relative="1" as="geometry">
            <Array as="points">
              <mxPoint x="1100" y="243" />
              <mxPoint x="1100" y="40" />
              <mxPoint x="1520" y="40" />
              <mxPoint x="1520" y="350" />
            </Array>
          </mxGeometry>
        </mxCell>
        <mxCell id="zMU_z4SldvgFsCKIW3oL-78" style="edgeStyle=orthogonalEdgeStyle;rounded=0;orthogonalLoop=1;jettySize=auto;html=1;exitX=0;exitY=0.25;exitDx=0;exitDy=0;" parent="1" source="zMU_z4SldvgFsCKIW3oL-12" target="zMU_z4SldvgFsCKIW3oL-79" edge="1">
          <mxGeometry relative="1" as="geometry">
            <mxPoint x="1039.9999999999998" y="160.00000000000023" as="targetPoint" />
          </mxGeometry>
        </mxCell>
        <mxCell id="zMU_z4SldvgFsCKIW3oL-12" value="&lt;font style=&quot;font-size: 15px;&quot;&gt;&amp;nbsp;VCC/3.3&lt;/font&gt;" style="text;html=1;align=center;verticalAlign=middle;whiteSpace=wrap;rounded=0;" parent="1" vertex="1">
          <mxGeometry x="1140" y="220" width="60" height="30" as="geometry" />
        </mxCell>
        <mxCell id="zMU_z4SldvgFsCKIW3oL-14" style="edgeStyle=orthogonalEdgeStyle;rounded=0;orthogonalLoop=1;jettySize=auto;html=1;exitX=0;exitY=0.5;exitDx=0;exitDy=0;entryX=0;entryY=0.5;entryDx=0;entryDy=0;entryPerimeter=0;" parent="1" source="zMU_z4SldvgFsCKIW3oL-13" target="6fYzGvUYfayJuw-_JPxw-12" edge="1">
          <mxGeometry relative="1" as="geometry">
            <mxPoint x="646" y="510" as="targetPoint" />
            <mxPoint x="1070" y="315" as="sourcePoint" />
            <Array as="points">
              <mxPoint x="700" y="265" />
              <mxPoint x="700" y="490" />
              <mxPoint x="636" y="490" />
            </Array>
          </mxGeometry>
        </mxCell>
        <mxCell id="zMU_z4SldvgFsCKIW3oL-13" value="&lt;font style=&quot;font-size: 18px;&quot;&gt;AO&lt;/font&gt;" style="text;html=1;align=right;verticalAlign=middle;whiteSpace=wrap;rounded=0;" parent="1" vertex="1">
          <mxGeometry x="1150" y="250" width="40" height="30" as="geometry" />
        </mxCell>
        <mxCell id="zMU_z4SldvgFsCKIW3oL-47" style="edgeStyle=orthogonalEdgeStyle;rounded=0;orthogonalLoop=1;jettySize=auto;html=1;exitX=0;exitY=0.5;exitDx=0;exitDy=0;entryX=0;entryY=0.5;entryDx=0;entryDy=0;" parent="1" source="zMU_z4SldvgFsCKIW3oL-17" target="zMU_z4SldvgFsCKIW3oL-21" edge="1">
          <mxGeometry relative="1" as="geometry" />
        </mxCell>
        <mxCell id="zMU_z4SldvgFsCKIW3oL-17" value="&lt;font style=&quot;font-size: 20px;&quot;&gt;GND&lt;/font&gt;" style="text;html=1;align=right;verticalAlign=middle;whiteSpace=wrap;rounded=0;" parent="1" vertex="1">
          <mxGeometry x="1140" y="320" width="60" height="30" as="geometry" />
        </mxCell>
        <mxCell id="zMU_z4SldvgFsCKIW3oL-19" value="&lt;font style=&quot;font-size: 18px;&quot;&gt;SCL&lt;/font&gt;" style="text;html=1;align=left;verticalAlign=middle;whiteSpace=wrap;rounded=0;" parent="1" vertex="1">
          <mxGeometry x="1330" y="300" width="40" height="30" as="geometry" />
        </mxCell>
        <mxCell id="zMU_z4SldvgFsCKIW3oL-49" style="edgeStyle=orthogonalEdgeStyle;rounded=0;orthogonalLoop=1;jettySize=auto;html=1;exitX=1;exitY=0.5;exitDx=0;exitDy=0;entryX=0;entryY=0.5;entryDx=0;entryDy=0;" parent="1" source="zMU_z4SldvgFsCKIW3oL-20" target="zMU_z4SldvgFsCKIW3oL-23" edge="1">
          <mxGeometry relative="1" as="geometry" />
        </mxCell>
        <mxCell id="zMU_z4SldvgFsCKIW3oL-20" value="&lt;span style=&quot;font-size: 18px;&quot;&gt;SDA&lt;/span&gt;" style="text;html=1;align=left;verticalAlign=middle;whiteSpace=wrap;rounded=0;" parent="1" vertex="1">
          <mxGeometry x="1330" y="250" width="40" height="30" as="geometry" />
        </mxCell>
        <mxCell id="zMU_z4SldvgFsCKIW3oL-21" value="&lt;font style=&quot;font-size: 18px;&quot;&gt;GND(6)&lt;/font&gt;" style="text;html=1;align=center;verticalAlign=middle;whiteSpace=wrap;rounded=0;" parent="1" vertex="1">
          <mxGeometry x="1594" y="430" width="60" height="30" as="geometry" />
        </mxCell>
        <mxCell id="zMU_z4SldvgFsCKIW3oL-23" value="&lt;font style=&quot;font-size: 17px;&quot;&gt;SDA(3)&lt;/font&gt;" style="text;html=1;align=center;verticalAlign=middle;whiteSpace=wrap;rounded=0;" parent="1" vertex="1">
          <mxGeometry x="1594" y="360" width="60" height="30" as="geometry" />
        </mxCell>
        <mxCell id="zMU_z4SldvgFsCKIW3oL-26" style="edgeStyle=orthogonalEdgeStyle;rounded=0;orthogonalLoop=1;jettySize=auto;html=1;exitX=0;exitY=0.5;exitDx=0;exitDy=0;entryX=1;entryY=0.5;entryDx=0;entryDy=0;" parent="1" source="zMU_z4SldvgFsCKIW3oL-24" target="zMU_z4SldvgFsCKIW3oL-19" edge="1">
          <mxGeometry relative="1" as="geometry">
            <Array as="points">
              <mxPoint x="1460" y="415" />
              <mxPoint x="1460" y="315" />
            </Array>
          </mxGeometry>
        </mxCell>
        <mxCell id="zMU_z4SldvgFsCKIW3oL-24" value="&lt;font style=&quot;font-size: 19px;&quot;&gt;SCL(5)&lt;/font&gt;" style="text;html=1;align=center;verticalAlign=middle;whiteSpace=wrap;rounded=0;" parent="1" vertex="1">
          <mxGeometry x="1594" y="400" width="60" height="30" as="geometry" />
        </mxCell>
        <mxCell id="zMU_z4SldvgFsCKIW3oL-29" value="" style="edgeStyle=orthogonalEdgeStyle;rounded=0;orthogonalLoop=1;jettySize=auto;html=1;exitX=1;exitY=0.5;exitDx=0;exitDy=0;exitPerimeter=0;entryX=0.5;entryY=0;entryDx=0;entryDy=0;entryPerimeter=0;" parent="1" source="6fYzGvUYfayJuw-_JPxw-24" target="zMU_z4SldvgFsCKIW3oL-28" edge="1">
          <mxGeometry relative="1" as="geometry">
            <mxPoint x="414" y="860" as="targetPoint" />
            <Array as="points">
              <mxPoint x="890" y="850" />
            </Array>
            <mxPoint x="890" y="555" as="sourcePoint" />
          </mxGeometry>
        </mxCell>
        <mxCell id="zMU_z4SldvgFsCKIW3oL-28" value="" style="pointerEvents=1;verticalLabelPosition=bottom;shadow=0;dashed=0;align=center;html=1;verticalAlign=top;shape=mxgraph.electrical.miscellaneous.circuit_breaker;" parent="1" vertex="1">
          <mxGeometry x="840" y="620" width="100" height="13" as="geometry" />
        </mxCell>
        <mxCell id="zMU_z4SldvgFsCKIW3oL-31" value="&lt;font style=&quot;font-size: 19px;&quot;&gt;33&lt;span style=&quot;color: rgb(0, 29, 53); font-family: Arial, sans-serif; text-align: start; text-wrap-mode: wrap; background-color: rgb(255, 255, 255);&quot;&gt;Ω&lt;/span&gt;&lt;/font&gt;" style="pointerEvents=1;verticalLabelPosition=bottom;shadow=0;dashed=0;align=center;html=1;verticalAlign=top;shape=mxgraph.electrical.resistors.resistor_2;rotation=90;" parent="1" vertex="1">
          <mxGeometry x="1470" y="560" width="60" height="15" as="geometry" />
        </mxCell>
        <mxCell id="zMU_z4SldvgFsCKIW3oL-32" style="edgeStyle=orthogonalEdgeStyle;rounded=0;orthogonalLoop=1;jettySize=auto;html=1;exitX=1;exitY=0.75;exitDx=0;exitDy=0;entryX=1;entryY=0.5;entryDx=0;entryDy=0;entryPerimeter=0;" parent="1" source="6fYzGvUYfayJuw-_JPxw-29" target="zMU_z4SldvgFsCKIW3oL-31" edge="1">
          <mxGeometry relative="1" as="geometry" />
        </mxCell>
        <mxCell id="zMU_z4SldvgFsCKIW3oL-33" style="edgeStyle=orthogonalEdgeStyle;rounded=0;orthogonalLoop=1;jettySize=auto;html=1;exitX=0.75;exitY=0;exitDx=0;exitDy=0;entryX=0;entryY=0.5;entryDx=0;entryDy=0;entryPerimeter=0;" parent="1" source="6fYzGvUYfayJuw-_JPxw-29" target="zMU_z4SldvgFsCKIW3oL-31" edge="1">
          <mxGeometry relative="1" as="geometry" />
        </mxCell>
        <mxCell id="zMU_z4SldvgFsCKIW3oL-38" style="edgeStyle=orthogonalEdgeStyle;rounded=0;orthogonalLoop=1;jettySize=auto;html=1;exitX=0;exitY=0.5;exitDx=0;exitDy=0;exitPerimeter=0;entryX=0;entryY=0.5;entryDx=0;entryDy=0;entryPerimeter=0;" parent="1" source="zMU_z4SldvgFsCKIW3oL-39" target="6fYzGvUYfayJuw-_JPxw-12" edge="1">
          <mxGeometry relative="1" as="geometry">
            <mxPoint x="700" y="630" as="sourcePoint" />
            <Array as="points">
              <mxPoint x="686" y="633" />
              <mxPoint x="686" y="510" />
              <mxPoint x="636" y="510" />
            </Array>
          </mxGeometry>
        </mxCell>
        <mxCell id="zMU_z4SldvgFsCKIW3oL-39" value="&lt;div style=&quot;text-align: center;&quot;&gt;&lt;span style=&quot;text-align: start; font-size: 23px; background-color: rgb(236, 236, 236);&quot;&gt;0.1&lt;/span&gt;&lt;span style=&quot;background-color: light-dark(rgb(255, 255, 255), rgb(18, 18, 18)); color: light-dark(rgb(0, 29, 53), rgb(195, 220, 240)); font-family: Arial, sans-serif; font-size: 24px; text-align: start; text-wrap-mode: wrap;&quot;&gt;µF&lt;/span&gt;&lt;/div&gt;" style="pointerEvents=1;verticalLabelPosition=bottom;shadow=0;dashed=0;align=center;html=1;verticalAlign=top;shape=mxgraph.electrical.capacitors.capacitor_1;" parent="1" vertex="1">
          <mxGeometry x="700" y="610" width="70" height="45" as="geometry" />
        </mxCell>
        <mxCell id="zMU_z4SldvgFsCKIW3oL-40" style="edgeStyle=orthogonalEdgeStyle;rounded=0;orthogonalLoop=1;jettySize=auto;html=1;exitX=0;exitY=1;exitDx=0;exitDy=0;exitPerimeter=0;entryX=1;entryY=0.5;entryDx=0;entryDy=0;entryPerimeter=0;" parent="1" source="zMU_z4SldvgFsCKIW3oL-28" target="zMU_z4SldvgFsCKIW3oL-39" edge="1">
          <mxGeometry relative="1" as="geometry">
            <Array as="points">
              <mxPoint x="805" y="633" />
            </Array>
          </mxGeometry>
        </mxCell>
        <mxCell id="zMU_z4SldvgFsCKIW3oL-50" value="micro usb" style="text;html=1;align=center;verticalAlign=middle;whiteSpace=wrap;rounded=0;" parent="1" vertex="1">
          <mxGeometry x="1770" y="300" width="60" height="30" as="geometry" />
        </mxCell>
        <mxCell id="zMU_z4SldvgFsCKIW3oL-51" style="edgeStyle=orthogonalEdgeStyle;rounded=0;orthogonalLoop=1;jettySize=auto;html=1;exitX=0.5;exitY=0;exitDx=0;exitDy=0;entryX=1;entryY=0.5;entryDx=0;entryDy=0;entryPerimeter=0;" parent="1" source="zMU_z4SldvgFsCKIW3oL-50" target="6fYzGvUYfayJuw-_JPxw-3" edge="1">
          <mxGeometry relative="1" as="geometry" />
        </mxCell>
        <mxCell id="zMU_z4SldvgFsCKIW3oL-52" value="&lt;font style=&quot;font-size: 20px;&quot;&gt;A1&lt;/font&gt;" style="text;html=1;align=right;verticalAlign=middle;whiteSpace=wrap;rounded=0;" parent="1" vertex="1">
          <mxGeometry x="1160" y="290" width="40" height="30" as="geometry" />
        </mxCell>
        <mxCell id="zMU_z4SldvgFsCKIW3oL-69" style="edgeStyle=orthogonalEdgeStyle;rounded=0;orthogonalLoop=1;jettySize=auto;html=1;exitX=1;exitY=0.5;exitDx=0;exitDy=0;exitPerimeter=0;entryX=1;entryY=0.25;entryDx=0;entryDy=0;" parent="1" source="zMU_z4SldvgFsCKIW3oL-54" target="zMU_z4SldvgFsCKIW3oL-20" edge="1">
          <mxGeometry relative="1" as="geometry" />
        </mxCell>
        <mxCell id="bdsWv4e6cfL317Ee1l61-1" value="" style="edgeStyle=orthogonalEdgeStyle;rounded=0;orthogonalLoop=1;jettySize=auto;html=1;" edge="1" parent="1" source="zMU_z4SldvgFsCKIW3oL-54" target="zMU_z4SldvgFsCKIW3oL-11">
          <mxGeometry relative="1" as="geometry" />
        </mxCell>
        <mxCell id="zMU_z4SldvgFsCKIW3oL-54" value="&lt;span style=&quot;color: rgb(0, 29, 53); font-family: Arial, sans-serif; font-size: 25px; text-align: start; text-wrap-mode: wrap; background-color: rgb(255, 255, 255);&quot;&gt;4.7kΩ&lt;/span&gt;" style="pointerEvents=1;verticalLabelPosition=bottom;shadow=0;dashed=0;align=center;html=1;verticalAlign=top;shape=mxgraph.electrical.resistors.resistor_2;" parent="1" vertex="1">
          <mxGeometry x="1230" y="110" width="100" height="20" as="geometry" />
        </mxCell>
        <mxCell id="zMU_z4SldvgFsCKIW3oL-67" style="edgeStyle=orthogonalEdgeStyle;rounded=0;orthogonalLoop=1;jettySize=auto;html=1;exitX=0;exitY=0.5;exitDx=0;exitDy=0;entryX=0;entryY=0.5;entryDx=0;entryDy=0;entryPerimeter=0;" parent="1" source="zMU_z4SldvgFsCKIW3oL-12" target="zMU_z4SldvgFsCKIW3oL-54" edge="1">
          <mxGeometry relative="1" as="geometry" />
        </mxCell>
        <mxCell id="zMU_z4SldvgFsCKIW3oL-71" value="" style="pointerEvents=1;verticalLabelPosition=bottom;shadow=0;dashed=0;align=center;html=1;verticalAlign=top;shape=mxgraph.electrical.miscellaneous.circuit_breaker;rotation=0;" parent="1" vertex="1">
          <mxGeometry x="1060" y="60" width="100" height="13" as="geometry" />
        </mxCell>
        <mxCell id="zMU_z4SldvgFsCKIW3oL-73" value="" style="pointerEvents=1;verticalLabelPosition=bottom;shadow=0;dashed=0;align=center;html=1;verticalAlign=top;shape=mxgraph.electrical.miscellaneous.circuit_breaker;rotation=90;" parent="1" vertex="1">
          <mxGeometry x="1390" y="250" width="100" height="13" as="geometry" />
        </mxCell>
        <mxCell id="zMU_z4SldvgFsCKIW3oL-76" style="edgeStyle=orthogonalEdgeStyle;rounded=0;orthogonalLoop=1;jettySize=auto;html=1;exitX=1;exitY=0.75;exitDx=0;exitDy=0;entryX=1;entryY=1;entryDx=0;entryDy=0;entryPerimeter=0;" parent="1" source="zMU_z4SldvgFsCKIW3oL-19" target="zMU_z4SldvgFsCKIW3oL-73" edge="1">
          <mxGeometry relative="1" as="geometry">
            <Array as="points">
              <mxPoint x="1402" y="322" />
              <mxPoint x="1433" y="322" />
            </Array>
          </mxGeometry>
        </mxCell>
        <mxCell id="zMU_z4SldvgFsCKIW3oL-77" style="edgeStyle=orthogonalEdgeStyle;rounded=0;orthogonalLoop=1;jettySize=auto;html=1;exitX=1;exitY=1;exitDx=0;exitDy=0;exitPerimeter=0;entryX=0;entryY=1;entryDx=0;entryDy=0;entryPerimeter=0;" parent="1" source="zMU_z4SldvgFsCKIW3oL-71" target="zMU_z4SldvgFsCKIW3oL-73" edge="1">
          <mxGeometry relative="1" as="geometry">
            <Array as="points">
              <mxPoint x="1433" y="73" />
            </Array>
          </mxGeometry>
        </mxCell>
        <mxCell id="zMU_z4SldvgFsCKIW3oL-79" value="&lt;h4 dir=&quot;auto&quot;&gt;&lt;span style=&quot;color: rgb(0, 29, 53); font-family: Arial, sans-serif; font-size: 25px; font-weight: 400; text-align: start; text-wrap-mode: wrap; background-color: rgb(255, 255, 255);&quot;&gt;4.7kΩ&lt;/span&gt;&lt;/h4&gt;" style="pointerEvents=1;verticalLabelPosition=bottom;shadow=0;dashed=0;align=center;html=1;verticalAlign=top;shape=mxgraph.electrical.resistors.resistor_2;rotation=90;" parent="1" vertex="1">
          <mxGeometry x="1005" y="115" width="70" height="20" as="geometry" />
        </mxCell>
        <mxCell id="zMU_z4SldvgFsCKIW3oL-80" style="edgeStyle=orthogonalEdgeStyle;rounded=0;orthogonalLoop=1;jettySize=auto;html=1;exitX=0;exitY=0.5;exitDx=0;exitDy=0;exitPerimeter=0;entryX=0;entryY=1;entryDx=0;entryDy=0;entryPerimeter=0;" parent="1" source="zMU_z4SldvgFsCKIW3oL-79" target="zMU_z4SldvgFsCKIW3oL-71" edge="1">
          <mxGeometry relative="1" as="geometry">
            <Array as="points">
              <mxPoint x="1040" y="73" />
            </Array>
          </mxGeometry>
        </mxCell>
        <mxCell id="bdsWv4e6cfL317Ee1l61-2" value="&lt;p style=&quot;white-space: pre-wrap;&quot; dir=&quot;auto&quot;&gt;&lt;font style=&quot;font-size: 16px;&quot;&gt;Zener 3.3V&lt;/font&gt;&lt;/p&gt;" style="pointerEvents=1;fillColor=strokeColor;verticalLabelPosition=bottom;shadow=0;dashed=0;align=center;html=1;verticalAlign=top;shape=mxgraph.electrical.diodes.zener_diode_1;rotation=90;" vertex="1" parent="1">
          <mxGeometry x="1030" y="320" width="100" height="60" as="geometry" />
        </mxCell>
        <mxCell id="bdsWv4e6cfL317Ee1l61-3" style="edgeStyle=orthogonalEdgeStyle;rounded=0;orthogonalLoop=1;jettySize=auto;html=1;exitX=0;exitY=0.5;exitDx=0;exitDy=0;entryX=0;entryY=0.5;entryDx=0;entryDy=0;entryPerimeter=0;" edge="1" parent="1" source="zMU_z4SldvgFsCKIW3oL-13" target="bdsWv4e6cfL317Ee1l61-2">
          <mxGeometry relative="1" as="geometry" />
        </mxCell>
        <mxCell id="bdsWv4e6cfL317Ee1l61-5" value="" style="pointerEvents=1;verticalLabelPosition=bottom;shadow=0;dashed=0;align=center;html=1;verticalAlign=top;shape=mxgraph.electrical.miscellaneous.circuit_breaker;rotation=90;" vertex="1" parent="1">
          <mxGeometry x="1040" y="520" width="100" height="13" as="geometry" />
        </mxCell>
        <mxCell id="bdsWv4e6cfL317Ee1l61-6" style="edgeStyle=orthogonalEdgeStyle;rounded=0;orthogonalLoop=1;jettySize=auto;html=1;exitX=1;exitY=0.5;exitDx=0;exitDy=0;exitPerimeter=0;entryX=0;entryY=1;entryDx=0;entryDy=0;entryPerimeter=0;" edge="1" parent="1" source="bdsWv4e6cfL317Ee1l61-2" target="bdsWv4e6cfL317Ee1l61-5">
          <mxGeometry relative="1" as="geometry">
            <Array as="points">
              <mxPoint x="1080" y="450" />
              <mxPoint x="1084" y="450" />
            </Array>
          </mxGeometry>
        </mxCell>
        <mxCell id="bdsWv4e6cfL317Ee1l61-7" style="edgeStyle=orthogonalEdgeStyle;rounded=0;orthogonalLoop=1;jettySize=auto;html=1;exitX=1;exitY=1;exitDx=0;exitDy=0;exitPerimeter=0;entryX=0.5;entryY=0;entryDx=0;entryDy=0;entryPerimeter=0;" edge="1" parent="1" source="bdsWv4e6cfL317Ee1l61-5" target="6fYzGvUYfayJuw-_JPxw-4">
          <mxGeometry relative="1" as="geometry">
            <Array as="points">
              <mxPoint x="1084" y="850" />
              <mxPoint x="414" y="850" />
            </Array>
          </mxGeometry>
        </mxCell>
      </root>
    </mxGraphModel>
  </diagram>
</mxfile>
